<?xml version="1.0" encoding="utf-8"?>
<!-- Generator: Adobe Illustrator 26.5.0, SVG Export Plug-In . SVG Version: 6.00 Build 0)  -->
<svg version="1.1" id="Layer_1" xmlns="http://www.w3.org/2000/svg" xmlns:xlink="http://www.w3.org/1999/xlink" x="0px" y="0px"
	 viewBox="0 0 200 200" style="enable-background:new 0 0 200 200;" xml:space="preserve">
<style type="text/css">
	.st0{fill:#FFFFFF;}
	.st1{display:none;}
	.st2{fill:#0C8AB1;}
</style>
<image style="overflow:visible;" width="400" height="400" xlink:href="../../mqdtu9iJ_400x400.jpeg"  transform="matrix(0.5 0 0 0.5 0 0)">
</image>
<circle class="st0" cx="100" cy="100" r="99"/>
<g>
	<path class="st1" d="M200,100.2c0,32.5,0,65,0,97.4c0,1.7-0.2,2.4-2.2,2.4c-65.2-0.1-130.4-0.1-195.7,0c-1.9,0-2.1-0.6-2.1-2.2
		c0-65.2,0-130.4,0-195.6C0,0.2,0.6,0,2.2,0c65.2,0,130.4,0,195.7,0c1.9,0,2.1,0.6,2.1,2.2C199.9,34.9,200,67.5,200,100.2z
		 M46.4,93.5c0.4-0.2,0.8-0.4,1.3-0.7c-0.1,0.5,0.2,0.3,0.3,0.2c0,0.6-0.1,1.1-0.1,1.7c-0.3-0.3-0.6-0.2-0.6,0.2
		c0,0.4,0.3,0.5,0.6,0.2c-0.2,2,2.1,2.8,2.3,4.6c-0.7,0.7-1,1.3,0.1,1.9c2.1,0.8,4.3,1.5,6.4,2.4c8.4,3.5,16.8,7,25.1,10.8
		c2.2,1,3,0.5,3.6-1.5c1.3-0.9,1.4-2.1,0.9-3.7c-0.9,1.2-1.4,2.2-1.5,3.5c-0.6,0.8-1.2,1.3-2.2,0.5c-0.7-0.6-1.7-0.9-2.6-1.3
		c-9.3-3.8-18.6-7.6-27.8-11.3c0-0.3,0.1-0.6,0.1-0.9c2.1,0.5,4.3,1.3,6.4,1.5c3.5,0.2,6.9-0.6,10.2-1.6c1-0.3,2-0.6,3.1-0.1
		c-0.2,0.6-1.3,0.8-0.7,1.6c0.1,0.1,0.5,0.2,0.6,0.1c2.6-2.2,6.8-1.9,8.6-5.3l-0.1,0.1c1.1-0.2,1.8-0.9,2.2-1.8
		c0.4-0.9,0.9-1.3,1.9-1.2c2.4,0.3,4.4-0.3,6.6-1.4c2.4-1.2,0.8-2.7,1.2-4c0.4-1.3-0.8-1.3-1.7-1.4c-1.1-0.2-2.3-0.1-2.1-2
		c0.1-1.3-1-1.4-2.1-1.2c-2.5,0.3-4.4,2.3-7,1.8c-0.1,1.6,2.8,0.4,1.8,2.2c-0.9,1.5-2.2,0.4-3.3-0.4c0.2,5.4-0.5,6.5-5.2,9.2
		c-5.9,3.4-12.2,4.1-18.7,1.9c-2.9-1-4.7-2.7-4.9-5.9c1.5-3.5,4.8-4.6,7.8-6.1c0.6-0.3,1.6-0.1,1.6-1.2c3.1-0.3,6.2-1,9.2-1.6
		c1.6,0.5,3.2,1,5,0.5c-1.7,0.1-3.2-1.6-5-0.5c-3.3-1.1-6.6-1.9-9.7,0.4c-2.7,1.7-5.4,3.5-8,5.2c-0.7,0.4-1.5,0.7-1.6,1.7
		c-3.6,0-3.8,0.1-2.6,2.6c-0.3,0.2-0.3,0.5-0.2,0.8C45.7,93.8,46.4,94.3,46.4,93.5z M143.2,86.2c-0.9,0.6-2.4,0.6-2.3,2.2
		c-1.1,2-2.6,2.2-4.6,1.4c-1.4-0.5-2.9-0.6-4.3-1.2c-2.1-0.9-3-0.4-3.7,1.8c-1.2,3.8-3,4.8-6.4,4.1c-0.1-0.6-0.5-0.9-1.1-0.9
		c-0.6-1,0-2.4-1-3.8c-0.4,2.4-0.5,4.3,0.3,6.2c-0.6,0.9-0.5,1.9-0.4,2.9c-0.3,3.5-0.4,6.9,0,10.4c-0.3,1.3-0.1,2.6,0.3,3.9
		c0.6-1.3,0.6-2.6,0.4-3.9c0-3.4-0.1-6.8-0.1-10.2c0.6-0.8-0.4-2.6,1.6-2.3c0.2,0.9,1.2,1.4,1.1,2.4c-0.4,5.1-0.6,10.3-1.2,15.4
		c-0.2,1.5,0.1,1.7,1.2,1.9c3.9,0.6,7.8,1.3,11.7,2c4,0.7,8,1.7,12.1,0.9c1.8-0.3,2.8-1,3.3-3c1.6-7,1.4-14,1.5-21.1
		c1.1-2.3,1-4.5-0.6-6.5c-1-1.1-1.9-2.6-3.8-1.6c-0.1,0-0.3,0-0.4,0c0,0.2,0.1,0.4,0.1,0.6c-1.9,2.2-1.9,4.8-1,7.3
		c1.2,3.5,0.1,6.9-0.2,10.5c-1.9-1.1-2.9-3.2-5.2-3.2l0.1,0.1c0.2-1.8,0.8-3.6,0.4-5.5c-0.7-2.8-0.7-5.5,0.3-8.2
		c1.3,0.1,1.7-1.3,2.9-1.5c0.4,0,1.2-0.2,1.1-0.7c-0.1-0.8-0.8-0.8-1.5-1c-1.1-1-2.1-2.2-3.8-2.2c-0.1,0-0.3,0.3-0.3,0.4
		C140.4,85.1,141.7,85.9,143.2,86.2z M126.1,80.1c-2.3-1.2-4.6,0.3-5.1,3.3c-0.3,1.6,0.2,3.3-0.5,4.9c-0.4,0.9,0.4,1.4,1.3,1
		c0.6-0.3,1-0.8,1.5-1.3c2.4,0.4,4.6-0.8,5.1-3.3c0.5-2.2,0.8-4.2,3.9-4C130.1,79.9,128.1,80.1,126.1,80.1z M189.1,98.6
		c0.6-7.4-2-14.2-6-20.7c-1.2-1.9-2-4.5-5.2-4.4c-1.5,0.1-3.4-0.5-4.3,0.6c-0.7,1,0.5,2.6,1.1,3.9c3.5,8.5,5.4,17.2,4.1,26.5
		c-0.8,5.9-2.4,11.5-4.8,16.9c-0.2,0.6-1.2,1.2-0.1,1.9c1.2,0.8,6.3,0.2,7-0.9C185.7,115.3,189.7,107.9,189.1,98.6z M24,73.8
		c-0.9,0.2-2.4-0.6-3.4,0.8c-4.4,6-7.6,12.5-8.3,20c-0.9,9.7,1.7,18.4,7.1,26.4c1.2,1.8,2.5,2.6,4.6,2.7c3.8,0.1,4.3-0.4,2.6-3.8
		c-3.1-6.4-4.5-13.2-4.6-20.2c-0.2-8.2,1.9-16,5.2-23.4c0.9-1.9,0.4-2.6-1.6-2.4C25.2,73.8,24.8,73.8,24,73.8z M110.9,99.6
		c0.2-1.3-0.4-2.2-1.9-2.2c-1.7,0.1-2.4-0.6-2.3-2.3c0.1-1.5-0.8-2-2.2-2c-1.4,0-2,0.7-1.9,2c0.2,1.7-0.7,2.5-2.3,2.4
		c-1.3,0-2.1,0.3-2,1.8c0.1,1.4,0.6,2.3,2,2.2c1.7-0.1,2.5,0.6,2.3,2.3c-0.2,1.6,0.8,1.9,2.2,1.9c1.4,0,2-0.6,1.9-1.9
		c-0.2-1.8,0.6-2.4,2.3-2.3C110.4,101.8,111,101.1,110.9,99.6z M85.3,96.2c-1-0.3-1.2,0.7-1.5,1.3c-1.3,2.3-2.5,4.7-3.8,7
		c-0.5,0.8-1.1,1.8,0.3,2.1c1.1,0.2,2.4,2.2,3.4-0.2c1-2.5,2.2-5,3.3-7.5C87.8,97,87.3,96.2,85.3,96.2z M80.9,118.6
		c0.5-0.1,1.4,0.2,1.6-0.7c0.1-0.7-0.6-0.8-1.2-1.1c-0.7-0.3-1.4-0.6-2.1-0.9c-0.7-0.3-1.5-1.3-2.1-0.3c-0.4,0.7,0.5,1.5,1.1,2
		C79,118.4,79.8,118.7,80.9,118.6z M43.8,98.1c1.1,1,2,1.5,2.9,2c0.7,0.4,0.9-0.1,1.2-0.3c0.4-0.3,0.1-0.6-0.2-0.7
		C46.6,98.6,45.6,97.7,43.8,98.1z M47.6,101.9c-1.4-0.5-2.4-1.5-4-1C44.6,102.3,45.4,103.8,47.6,101.9z"/>
	<path d="M161,81.7c2.5-1.3,3.6,0.7,4.9,2c-0.1,0.3-0.3,0.6-0.4,0.9c-1.5-1.1-2.6-0.5-3.4,0.9c-1.2,2.3-1.1,4.6,0.5,6.7
		c1.3,1.6,2.4,0.6,3.6-0.2c0.2,0.1,0.4,0.1,0.5,0.2c-0.1,9.2,0.2,18.4-1.9,27.4c-0.6,2.7-2,3.5-4.3,3.9c-5.4,1.1-10.5-0.2-15.7-1.1
		c-5.1-0.9-10.1-1.7-15.2-2.6c-1.5-0.2-1.8-0.5-1.6-2.4c0.8-6.6,1.1-13.3,1.6-20c0.1-1.4-1.1-2-1.4-3.1c1.1-1.1-0.5-2-0.2-3
		c4.4,0.9,6.8-0.4,8.4-5.3c0.9-2.8,2.1-3.5,4.8-2.4c1.8,0.7,3.8,0.8,5.6,1.5c2.6,1,4.6,0.7,6-1.8c0.1,0.1,0.3,0.3,0.5,0.4
		c-1.3,3.5-1.2,7.1-0.4,10.7c0.6,2.4-0.2,4.8-0.5,7.2c-3.3,0.6-6.7-0.3-10.1,1c-0.8,0.3-2.2-0.2-3.1-1.2c2.9-1.4,5.2-3.3,8.2-4.1
		c0.9-0.2,2.4-1,1.1-2.3c-0.7-0.7-1.9-1.7-2.8-1.1c-1.3,0.8-3.7,1.6-3.4,2.8c0.6,2.6-1,2.2-2.2,2.3c-1.9,0.2-3.8,0-5.7,0
		c0.6,2.1,3.2,1.6,3.6,3.7c0.8,4.8,0.2,6-4.5,7.2c-0.3,0.1-0.9,0-0.7,0.7c5.6,0.8,11.1,1.5,16.7,2.3c1.4,0.2,2.2,0,2.2-1.8
		c0.1-3.2,0.4-6.4,0.7-9.6c3-0.1,4.3,2.7,6.7,4.1c0.4-4.7,1.9-9,0.3-13.6c-1.1-3.2-1.2-6.6,1.3-9.5C161.2,82.4,161.3,82.2,161,81.7z
		"/>
	<path class="st2" d="M191.4,97c0.8,13.3-4.9,23.9-11.6,34.2c-1,1.6-8.4,2.4-10.1,1.3c-1.5-1-0.2-2,0.2-2.8
		c3.4-7.8,5.8-15.8,6.9-24.3c1.8-13.2-0.8-25.8-5.9-38c-0.8-1.8-2.5-4.2-1.5-5.5c1.2-1.6,3.9-0.8,6.1-0.9c4.5-0.2,5.7,3.5,7.4,6.3
		C188.5,76.6,192.3,86.3,191.4,97z"/>
	<path class="st2" d="M24.9,61.1c1.1,0,1.7,0,2.3,0c3-0.3,3.6,0.8,2.3,3.5c-4.8,10.7-7.8,21.9-7.5,33.7c0.2,10.1,2.2,20,6.6,29.2
		c2.4,4.9,1.7,5.7-3.8,5.5c-3.1-0.1-4.9-1.3-6.6-3.9C10.4,117.5,6.6,104.9,7.9,91c1-10.8,5.7-20.2,12-28.8
		C21.4,60.3,23.5,61.3,24.9,61.1z"/>
	<path d="M33.2,88.2c0.3,4.1,2.7,6.4,6.4,7.6c8.5,2.8,16.6,1.9,24.4-2.5c6.2-3.5,7-5,6.8-12c1.4,1.1,3.1,2.6,4.2,0.5
		c1.4-2.4-2.5-0.8-2.3-2.9c3.3,0.6,5.9-1.9,9.1-2.3c1.5-0.2,2.9-0.1,2.8,1.6c-0.3,2.5,1.4,2.3,2.8,2.5c1.2,0.2,2.8,0.1,2.2,1.9
		c-0.5,1.7,1.5,3.7-1.6,5.2c-2.9,1.4-5.6,2.1-8.6,1.8c-1.3-0.1-2,0.3-2.5,1.5c-0.5,1.2-1.4,2.1-2.8,2.4c0-0.9,0.5-1.6,0.9-2.3
		c0.6-1,1-1.8-0.4-2.6c-1.4-0.8-1.9-0.2-2.5,0.9c-0.5,1.1-1.4,1.9-2.3,2.6c-0.4,0.4-1.3,0.9-0.7,1.5c0.3,0.4,1.3,0.5,1.8,0.3
		c1.1-0.4,2-1.3,3.2-0.5c-2.5,4.4-7.8,4.1-11.3,6.9c-0.2,0.1-0.7,0.1-0.8-0.1c-0.7-1.1,0.7-1.3,1-2.1c-1.4-0.6-2.7-0.2-4,0.2
		c-4.3,1.3-8.8,2.4-13.3,2.1c-2.8-0.2-5.6-1.2-8.4-1.9c-0.8-1-1.7-1-2.6-0.3c-0.2-2.4-3.2-3.4-3-6c0.1,0,0.2-0.1,0.2-0.1
		c-0.1-0.1-0.1-0.2-0.2-0.3c0.1-0.7,0.1-1.5,0.2-2.2C32.4,89,32.8,88.6,33.2,88.2z"/>
	<path class="st2" d="M113.8,97.9c0.2,1.9-0.6,2.9-2.4,2.7c-2.2-0.2-3.3,0.6-3,2.9c0.2,1.8-0.6,2.5-2.4,2.5c-1.8,0-3.1-0.3-2.9-2.5
		c0.2-2.2-0.8-3.1-3-3c-1.9,0.1-2.6-1.2-2.7-2.9c-0.1-2,1-2.4,2.6-2.4c2.1,0,3.2-0.9,3-3.2c-0.2-1.7,0.6-2.6,2.4-2.6
		c1.8,0,3,0.6,2.9,2.5c-0.2,2.3,0.8,3.1,3,3C113.3,94.9,114,96.2,113.8,97.9z"/>
	<path d="M80.4,115.7c-0.7,2.6-1.8,3.2-4.6,2c-10.8-4.9-21.7-9.4-32.6-14c-2.7-1.2-5.5-2.1-8.3-3.1c0.6-0.7,1.4-1.2,2.4-1
		c12.1,4.9,24.2,9.8,36.2,14.7c1.2,0.5,2.4,0.9,3.3,1.7c1.4,1.1,2.1,0.4,2.9-0.6C79.9,115.5,80.2,115.6,80.4,115.7z"/>
	<path d="M80.5,93.4c2.6,0,3.2,1,2.2,3.4c-1.4,3.3-2.9,6.5-4.3,9.8c-1.3,3.2-3.1,0.5-4.5,0.3c-1.9-0.3-1.1-1.6-0.5-2.7
		c1.7-3,3.3-6.1,5-9.1C78.9,94.3,79.1,93.1,80.5,93.4z"/>
	<path d="M130,82.9c-0.6,0.6-1.2,1.3-1.9,1.6c-1.2,0.5-2.2-0.1-1.7-1.3c0.9-2.1,0.3-4.3,0.6-6.4c0.7-3.9,3.6-5.9,6.6-4.3
		C135.5,77.1,132.7,80,130,82.9z"/>
	<path d="M130,82.9c2.7-2.9,5.5-5.8,3.6-10.4c2.6,0,5.2-0.3,8,0.9c-4-0.2-4.5,2.4-5,5.3C135.9,81.9,133.1,83.5,130,82.9z"/>
	<path d="M33.2,88.2c-0.4,0.4-0.9,0.8-1.3,1.2c-0.2,0-0.6,0.3-0.5-0.3c-0.4-1.1,0.4-2,0.7-3c0.1-1.3,1.2-1.6,2.1-2.2
		c3.5-2.2,7-4.5,10.5-6.7c0.3,0.5,0.5,1.1,0.7,1.6c0,1.4-1.2,1.2-2,1.6C39.5,82.2,35.2,83.7,33.2,88.2z"/>
	<path d="M45.4,78.7c-0.2-0.5-0.5-1.1-0.7-1.6c4.1-3,8.4-1.9,12.6-0.5c0,0,0.1,0.1,0.1,0.1C53.4,77.5,49.5,78.4,45.4,78.7z"/>
	<path d="M74.7,122.6c-1.4,0.1-2.5-0.3-3.5-1.1c-0.8-0.7-2-1.7-1.4-2.7c0.8-1.4,1.8,0,2.7,0.4c0.9,0.3,1.8,0.8,2.7,1.1
		c0.7,0.3,1.7,0.5,1.5,1.4C76.6,122.9,75.4,122.4,74.7,122.6z"/>
	<path d="M125.1,110.6c-0.6-4.5-0.4-9,0-13.5c0.3,0.2,0.5,0.6,0.9,0.2c0,4.4,0.1,8.9,0.1,13.3C125.8,110.2,125.5,110.3,125.1,110.6z
		"/>
	<path d="M126,97.3c-0.4,0.4-0.6,0-0.9-0.2c-0.1-1.3-0.3-2.6,0.5-3.8c2.9-0.2,0.3-2.2,1-3.1c0.8,0,1.2,0.3,1.4,1.1
		c-0.4,1,1.2,2,0.2,3C125.5,94,126.7,96.4,126,97.3z"/>
	<path d="M166.8,92.3c-0.2-0.1-0.4-0.1-0.5-0.2c0.6-2.5,1.1-5.1-0.7-7.4c0.1-0.3,0.3-0.6,0.4-0.9C168.1,86.4,168.2,89.3,166.8,92.3z
		"/>
	<path d="M153.2,83.7c-0.2-0.1-0.3-0.3-0.5-0.4c0-2.1,1.9-2,3.1-2.9c0.2-0.3,0.5-0.5,0.8-0.8c0.8,0.2,1.8,0.3,1.9,1.3
		c0,0.7-0.9,0.9-1.5,0.9C155.4,82,154.8,83.9,153.2,83.7z"/>
	<path d="M32.1,86.1c-0.2,1-1.1,1.9-0.7,3c-0.5,0.3-1.1,0.6-1.6,0.8c-0.2-0.6-0.6-0.6-1.1-0.5C27.2,86.2,27.4,86,32.1,86.1z"/>
	<path d="M156.5,79.6c-0.3,0.3-0.5,0.5-0.8,0.8c-1.9-0.4-3.5-1.4-4.6-3.2c0-0.1,0.2-0.5,0.4-0.5C153.8,76.8,155.1,78.3,156.5,79.6z"
		/>
	<path d="M126.6,90.2c-0.7,0.9,1.9,2.9-1,3.1c-0.9-2.5-0.8-5-0.3-8.1C126.6,87.1,125.8,88.8,126.6,90.2z"/>
	<path d="M26.4,95.9c2.3-0.6,3.6,0.7,5.1,1.3c0.4,0.2,0.8,0.5,0.2,0.9c-0.4,0.3-0.7,1-1.6,0.4C29,97.9,27.9,97.2,26.4,95.9z"/>
	<path d="M31.4,100.8c-2.9,2.5-3.9,0.6-5.2-1.3C28.3,98.9,29.6,100.2,31.4,100.8z"/>
	<path d="M80.4,115.7c-0.2-0.1-0.5-0.2-0.7-0.3c0.1-1.6,0.7-3,1.9-4.5C82.3,113,82.1,114.5,80.4,115.7z"/>
	<path d="M37.2,99.5c-1-0.2-1.7,0.3-2.4,1c-1.4-0.8-1-1.6-0.1-2.5c1-0.7,1.9-0.8,2.6,0.3C37.4,98.7,37.3,99.1,37.2,99.5z"/>
	<path d="M57.4,76.6c0,0-0.1-0.1-0.1-0.1c2.4-1.4,4.3,0.9,6.6,0.7C61.6,78,59.5,77.3,57.4,76.6z"/>
	<path d="M125.1,110.6c0.3-0.3,0.6-0.4,1,0c0.3,1.7,0.2,3.4-0.5,5.1C125,114,124.7,112.4,125.1,110.6z"/>
	<path d="M28.7,89.5c0.5-0.1,0.9-0.1,1.1,0.5c0,1.1-0.9,0.4-1.3,0.6C28.4,90.1,28.4,89.7,28.7,89.5z"/>
	<path d="M31.7,91.6c0.1,0.1,0.2,0.2,0.2,0.3c0,0-0.1,0.1-0.2,0.1c-0.4,0.4-0.8,0.3-0.8-0.2C31,91.4,31.3,91.2,31.7,91.6z"/>
	<path d="M161,81.7c0.3,0.4,0.2,0.7-0.3,0.8c-0.1-0.2-0.1-0.5-0.2-0.7C160.7,81.8,160.8,81.7,161,81.7z"/>
	<path class="st1" d="M140.5,102.4c-0.2,2.5-0.5,4.9-0.5,7.4c0,1.3-0.6,1.5-1.7,1.4c-4.3-0.6-8.5-1.2-12.8-1.8
		c-0.1-0.6,0.4-0.5,0.6-0.6c3.6-0.9,4.1-1.8,3.4-5.5c-0.3-1.6-2.2-1.3-2.7-2.8c1.5,0,3,0.1,4.4,0c0.9-0.1,2.2,0.3,1.7-1.7
		c-0.2-0.9,1.6-1.5,2.6-2.2c0.8-0.5,1.7,0.3,2.2,0.8c1,1-0.2,1.6-0.8,1.8c-2.3,0.6-4,2.1-6.3,3.2c0.7,0.7,1.7,1.2,2.4,0.9
		C135.3,102.2,138,102.9,140.5,102.4C140.5,102.5,140.5,102.4,140.5,102.4z"/>
	<path class="st1" d="M150.6,89.5c1.4,1.8,1,3.7,0.5,5.7c-0.9,0.6-1.8,1.4-2.7,0.2c-1.2-1.6-1.3-3.3-0.4-5.1
		C148.6,89.1,149.5,88.6,150.6,89.5z"/>
	<path class="st1" d="M80.4,96.1c-0.9-0.6-1.7,0.1-2.5,0.4c-0.4,0.1-1.1,0-1.4-0.2c-0.5-0.5,0.2-0.9,0.5-1.2c0.7-0.6,1.4-1.2,1.8-2
		c0.4-0.9,0.9-1.3,1.9-0.7c1.1,0.6,0.8,1.3,0.3,2C80.7,95,80.3,95.5,80.4,96.1C80.4,96.2,80.4,96.1,80.4,96.1z"/>
	<ellipse cx="50.2" cy="87.3" rx="1.3" ry="0.7"/>
</g>
</svg>
