<?xml version="1.0" encoding="utf-8"?>
<!-- Generator: Adobe Illustrator 26.5.0, SVG Export Plug-In . SVG Version: 6.00 Build 0)  -->
<svg version="1.1" id="Layer_1" xmlns="http://www.w3.org/2000/svg" xmlns:xlink="http://www.w3.org/1999/xlink" x="0px" y="0px"
	 viewBox="0 0 206 100" style="enable-background:new 0 0 206 100;" xml:space="preserve">
<style type="text/css">
	.st0{display:none;fill:#FFFFFF;}
	.st1{fill:#FFFFFF;}
	.st2{display:none;fill:#FFFFFF;enable-background:new    ;}
	.st3{font-family:'AvianoSansBold';}
	.st4{font-size:25px;}
	.st5{enable-background:new    ;}
</style>
<g>
	<path class="st0" d="M208,69c-70,0-139.9,0-210,0c0-20.9,0-41.9,0-63c69.9,0,140,0,210,0C208,26.9,208,47.9,208,69z M72.1,49.8
		C48.4,36,25.6,22.7,2.6,9.3c0,17.4,0,34.1,0,51c3.3-0.2,6.2-0.4,9.7-0.6c0-11.7,0-23,0-35.2C36,38.2,58.9,51.3,82.1,64.6
		c0-17.4,0-33.8,0-50.4c-3.3,0-6.4,0-10,0C72.1,25.9,72.1,37.4,72.1,49.8z M188.1,13.7c-21.7,0-43.2-0.3-64.7,0.2
		c-7.4,0.2-14.1,4.5-14.9,12.2c-1.1,11.3-0.3,22.9-0.3,34.2c27,0,53.7,0,80.5,0c0-2.3,0-4.3,0-6.8c-23.7,0-47.1,0-71,0
		c0-6.7,0-12.9,0-19.1c0.1-9.5,3.7-13.1,13.3-13.2c13.9-0.1,27.8,0,41.8,0c5,0,10,0,15.4,0C188.1,18.4,188.1,16.1,188.1,13.7z
		 M99.5,59.7c0-2.3,0-4.1,0-5.9c-3.4,0-6.4,0-9.5,0c0,2.1,0,3.9,0,5.9C93.3,59.7,96.2,59.7,99.5,59.7z M192.8,53.7
		c0,2.3,0,4.1,0,5.9c3.4,0,6.4,0,9.7,0c0-2.1,0-3.9,0-5.9C199.1,53.7,196.1,53.7,192.8,53.7z"/>
	<path class="st1" d="M72.1,49.8c0-12.4,0-23.9,0-35.6c3.6,0,6.7,0,10,0c0,16.6,0,32.9,0,50.4C58.9,51.3,36,38.2,12.3,24.5
		c0,12.2,0,23.5,0,35.2c-3.5,0.2-6.4,0.4-9.7,0.6c0-16.9,0-33.6,0-51C25.6,22.7,48.4,36,72.1,49.8z"/>
	<path class="st1" d="M188.1,13.7c0,2.3,0,4.6,0,7.5c-5.3,0-10.4,0-15.4,0c-13.9,0-27.8-0.1-41.8,0c-9.6,0-13.2,3.7-13.3,13.2
		c0,6.2,0,12.3,0,19.1c23.9,0,47.3,0,71,0c0,2.5,0,4.5,0,6.8c-26.8,0-53.5,0-80.5,0c0-11.4-0.8-22.9,0.3-34.2
		c0.7-7.7,7.4-12,14.9-12.2C144.9,13.4,166.5,13.7,188.1,13.7z"/>
	<path class="st1" d="M99.5,59.7c-3.4,0-6.2,0-9.5,0c0-2,0-3.8,0-5.9c3.1,0,6.1,0,9.5,0C99.5,55.6,99.5,57.4,99.5,59.7z"/>
	<path class="st1" d="M192.8,53.7c3.4,0,6.4,0,9.7,0c0,2,0,3.8,0,5.9c-3.3,0-6.3,0-9.7,0C192.8,57.7,192.8,55.9,192.8,53.7z"/>
</g>
<text transform="matrix(1 0 0 1 0.7136 84.5986)" class="st2 st3 st4">PRODUCTIONS</text>
<g class="st5">
	<path class="st1" d="M5.8,79.7v4.9H3V70.7h9.3c3.6,0,5.1,2.4,5.1,4.5c0,2-1.5,4.5-5.1,4.5H5.8z M5.8,73.1v4.2h5.7
		c2,0,2.8-1,2.8-2.1c0-1.1-0.8-2.1-2.8-2.1H5.8z"/>
	<path class="st1" d="M32.2,84.6l-3.4-4.8h-5.4v4.8h-2.8V70.7h9.6c3.6,0,5.2,2.4,5.2,4.6c0,1.7-1.1,3.4-3.4,4.2l3.6,5.2H32.2z
		 M23.4,73.1v4.3h6c2.1,0,2.9-1,2.9-2.2c0-1.1-0.8-2.2-2.9-2.2H23.4z"/>
	<path class="st1" d="M47.9,84.8c-6,0-10.1-2.9-10.1-7.2c0-4.3,4-7.2,10.1-7.2c6,0,10.1,2.9,10.1,7.2C58,81.9,54.1,84.8,47.9,84.8z
		 M47.9,72.8c-4,0-7,1.8-7,4.8c0,3,3,4.8,7,4.8c4,0,7.1-1.8,7.1-4.8C55,74.6,51.9,72.8,47.9,72.8z"/>
	<path class="st1" d="M61.5,84.6V70.7h8.5c5.5,0,9.3,2,9.3,7c0,5-3.8,7-9.3,7H61.5z M70.1,82.2c3.2,0,6.3-1,6.3-4.6
		c0-3.5-3.1-4.6-6.3-4.6h-5.7v9.1H70.1z"/>
	<path class="st1" d="M95.5,70.7h2.8v7.2c0,5-3.5,7.1-7.8,7.1c-4.3,0-7.8-2.1-7.8-7.1v-7.2h2.8v7.2c0,3.5,2.5,4.7,5,4.7
		c2.5,0,5-1.1,5-4.7V70.7z"/>
	<path class="st1" d="M118.7,83.5c-2,1-4.5,1.3-6.9,1.3c-6.3,0-10.3-2.9-10.3-7.2s4-7.2,10.2-7.2c2.3,0,4.9,0.3,6.9,1.3v2.5
		c-1.3-0.6-3.6-1.5-6.8-1.5c-4.9,0-7.3,2.1-7.3,4.8c0,2.7,2.4,4.8,7.4,4.8c3.3,0,5.7-0.9,6.7-1.4V83.5z"/>
	<path class="st1" d="M126.7,84.6V73.1h-6.2v-2.4h15.3v2.4h-6.3v11.5H126.7z"/>
	<path class="st1" d="M138.6,84.6V70.7h2.8v13.9H138.6z"/>
	<path class="st1" d="M155,84.8c-6,0-10.1-2.9-10.1-7.2c0-4.3,4-7.2,10.1-7.2c6,0,10.1,2.9,10.1,7.2C165.1,81.9,161.2,84.8,155,84.8
		z M155,72.8c-4,0-7,1.8-7,4.8c0,3,3,4.8,7,4.8c4,0,7.1-1.8,7.1-4.8C162.1,74.6,159,72.8,155,72.8z"/>
	<path class="st1" d="M171.4,75.4v9.2h-2.8V70.4l13.9,9.7v-9.4h2.8v14.2L171.4,75.4z"/>
	<path class="st1" d="M203.1,73.4c-1.9-0.6-4-0.7-6.3-0.7c-1.8,0-4.9,0.1-4.9,1.7c0,3.5,12.3-0.5,12.3,6.1c0,3.7-4.2,4.4-7.9,4.4
		c-2.6,0-5.4-0.3-7.4-0.7l0.1-2.4c2.1,0.5,4.8,0.8,7.4,0.8c2.5,0,5.1-0.3,5.1-1.9c0-3.7-12.3,0.3-12.3-6.1c0-3.7,4.4-4.1,7.5-4.1
		c2.7,0,4.8,0.3,6.4,0.7L203.1,73.4z"/>
</g>
</svg>
