<?xml version="1.0" encoding="utf-8"?>
<!-- Generator: Adobe Illustrator 26.5.0, SVG Export Plug-In . SVG Version: 6.00 Build 0)  -->
<svg version="1.1" id="Layer_1" xmlns="http://www.w3.org/2000/svg" xmlns:xlink="http://www.w3.org/1999/xlink" x="0px" y="0px"
	 viewBox="0 0 206 100" style="enable-background:new 0 0 206 100;" xml:space="preserve">
<style type="text/css">
	.st0{display:none;fill:#FFFFFF;}
	.st1{fill:#FFFFFF;}
	.st2{font-family:'AvianoSansBold';}
	.st3{font-size:25px;}
</style>
<g>
	<path class="st0" d="M208,69c-70,0-139.9,0-210,0c0-20.9,0-41.9,0-63c69.9,0,140,0,210,0C208,26.9,208,47.9,208,69z M72.1,49.8
		C48.4,36,25.6,22.7,2.6,9.3c0,17.4,0,34.1,0,51c3.3-0.2,6.2-0.4,9.7-0.6c0-11.7,0-23,0-35.2C36,38.2,58.9,51.3,82.1,64.6
		c0-17.4,0-33.8,0-50.4c-3.3,0-6.4,0-10,0C72.1,25.9,72.1,37.4,72.1,49.8z M188.1,13.7c-21.7,0-43.2-0.3-64.7,0.2
		c-7.4,0.2-14.1,4.5-14.9,12.2c-1.1,11.3-0.3,22.9-0.3,34.2c27,0,53.7,0,80.5,0c0-2.3,0-4.3,0-6.8c-23.7,0-47.1,0-71,0
		c0-6.7,0-12.9,0-19.1c0.1-9.5,3.7-13.1,13.3-13.2c13.9-0.1,27.8,0,41.8,0c5,0,10,0,15.4,0C188.1,18.4,188.1,16.1,188.1,13.7z
		 M99.5,59.7c0-2.3,0-4.1,0-5.9c-3.4,0-6.4,0-9.5,0c0,2.1,0,3.9,0,5.9C93.3,59.7,96.2,59.7,99.5,59.7z M192.8,53.7
		c0,2.3,0,4.1,0,5.9c3.4,0,6.4,0,9.7,0c0-2.1,0-3.9,0-5.9C199.1,53.7,196.1,53.7,192.8,53.7z"/>
	<path class="st1" d="M72.1,49.8c0-12.4,0-23.9,0-35.6c3.6,0,6.7,0,10,0c0,16.6,0,32.9,0,50.4C58.9,51.3,36,38.2,12.3,24.5
		c0,12.2,0,23.5,0,35.2c-3.5,0.2-6.4,0.4-9.7,0.6c0-16.9,0-33.6,0-51C25.6,22.7,48.4,36,72.1,49.8z"/>
	<path class="st1" d="M188.1,13.7c0,2.3,0,4.6,0,7.5c-5.3,0-10.4,0-15.4,0c-13.9,0-27.8-0.1-41.8,0c-9.6,0-13.2,3.7-13.3,13.2
		c0,6.2,0,12.3,0,19.1c23.9,0,47.3,0,71,0c0,2.5,0,4.5,0,6.8c-26.8,0-53.5,0-80.5,0c0-11.4-0.8-22.9,0.3-34.2
		c0.7-7.7,7.4-12,14.9-12.2C144.9,13.4,166.5,13.7,188.1,13.7z"/>
	<path class="st1" d="M99.5,59.7c-3.4,0-6.2,0-9.5,0c0-2,0-3.8,0-5.9c3.1,0,6.1,0,9.5,0C99.5,55.6,99.5,57.4,99.5,59.7z"/>
	<path class="st1" d="M192.8,53.7c3.4,0,6.4,0,9.7,0c0,2,0,3.8,0,5.9c-3.3,0-6.3,0-9.7,0C192.8,57.7,192.8,55.9,192.8,53.7z"/>
</g>
<text transform="matrix(1 0 0 1 0.7136 84.5986)" class="st1 st2 st3">PRODUCTIONS</text>
</svg>
