<?xml version="1.0" encoding="utf-8"?>
<!-- Generator: Adobe Illustrator 26.5.0, SVG Export Plug-In . SVG Version: 6.00 Build 0)  -->
<svg version="1.1" xmlns="http://www.w3.org/2000/svg" xmlns:xlink="http://www.w3.org/1999/xlink" x="0px" y="0px"
	 viewBox="0 0 200 200" style="enable-background:new 0 0 200 200;" xml:space="preserve">
<style type="text/css">
	.st0{fill:#FFFFFF;}
	.st1{display:none;}
	.st2{display:inline;}
	.st3{fill:#0C8AB1;}
	.st4{display:inline;fill:#0C8AB1;}
	.st5{font-family:'AvianoSansBold';}
	.st6{font-size:22.5904px;}
</style>
<g id="Layer_1">
	
		<image style="display:none;overflow:visible;" width="400" height="400" xlink:href="../../mqdtu9iJ_400x400.jpeg"  transform="matrix(0.5 0 0 0.5 0 0)">
	</image>
	<circle class="st0" cx="100" cy="100" r="99"/>
	<g class="st1">
		<path d="M200,100.2c0,32.5,0,65,0,97.4c0,1.7-0.2,2.4-2.2,2.4c-65.2-0.1-130.4-0.1-195.7,0c-1.9,0-2.1-0.6-2.1-2.2
			c0-65.2,0-130.4,0-195.6C0,0.2,0.6,0,2.2,0c65.2,0,130.4,0,195.7,0c1.9,0,2.1,0.6,2.1,2.2C199.9,34.9,200,67.5,200,100.2z
			 M46.4,93.5c0.4-0.2,0.8-0.4,1.3-0.7c-0.1,0.5,0.2,0.3,0.3,0.2c0,0.6-0.1,1.1-0.1,1.7c-0.3-0.3-0.6-0.2-0.6,0.2
			c0,0.4,0.3,0.5,0.6,0.2c-0.2,2,2.1,2.8,2.3,4.6c-0.7,0.7-1,1.3,0.1,1.9c2.1,0.8,4.3,1.5,6.4,2.4c8.4,3.5,16.8,7,25.1,10.8
			c2.2,1,3,0.5,3.6-1.5c1.3-0.9,1.4-2.1,0.9-3.7c-0.9,1.2-1.4,2.2-1.5,3.5c-0.6,0.8-1.2,1.3-2.2,0.5c-0.7-0.6-1.7-0.9-2.6-1.3
			c-9.3-3.8-18.6-7.6-27.8-11.3c0-0.3,0.1-0.6,0.1-0.9c2.1,0.5,4.3,1.3,6.4,1.5c3.5,0.2,6.9-0.6,10.2-1.6c1-0.3,2-0.6,3.1-0.1
			c-0.2,0.6-1.3,0.8-0.7,1.6c0.1,0.1,0.5,0.2,0.6,0.1c2.6-2.2,6.8-1.9,8.6-5.3l-0.1,0.1c1.1-0.2,1.8-0.9,2.2-1.8
			c0.4-0.9,0.9-1.3,1.9-1.2c2.4,0.3,4.4-0.3,6.6-1.4c2.4-1.2,0.8-2.7,1.2-4c0.4-1.3-0.8-1.3-1.7-1.4c-1.1-0.2-2.3-0.1-2.1-2
			c0.1-1.3-1-1.4-2.1-1.2c-2.5,0.3-4.4,2.3-7,1.8c-0.1,1.6,2.8,0.4,1.8,2.2c-0.9,1.5-2.2,0.4-3.3-0.4c0.2,5.4-0.5,6.5-5.2,9.2
			c-5.9,3.4-12.2,4.1-18.7,1.9c-2.9-1-4.7-2.7-4.9-5.9c1.5-3.5,4.8-4.6,7.8-6.1c0.6-0.3,1.6-0.1,1.6-1.2c3.1-0.3,6.2-1,9.2-1.6
			c1.6,0.5,3.2,1,5,0.5c-1.7,0.1-3.2-1.6-5-0.5c-3.3-1.1-6.6-1.9-9.7,0.4c-2.7,1.7-5.4,3.5-8,5.2c-0.7,0.4-1.5,0.7-1.6,1.7
			c-3.6,0-3.8,0.1-2.6,2.6c-0.3,0.2-0.3,0.5-0.2,0.8C45.7,93.8,46.4,94.3,46.4,93.5z M143.2,86.2c-0.9,0.6-2.4,0.6-2.3,2.2
			c-1.1,2-2.6,2.2-4.6,1.4c-1.4-0.5-2.9-0.6-4.3-1.2c-2.1-0.9-3-0.4-3.7,1.8c-1.2,3.8-3,4.8-6.4,4.1c-0.1-0.6-0.5-0.9-1.1-0.9
			c-0.6-1,0-2.4-1-3.8c-0.4,2.4-0.5,4.3,0.3,6.2c-0.6,0.9-0.5,1.9-0.4,2.9c-0.3,3.5-0.4,6.9,0,10.4c-0.3,1.3-0.1,2.6,0.3,3.9
			c0.6-1.3,0.6-2.6,0.4-3.9c0-3.4-0.1-6.8-0.1-10.2c0.6-0.8-0.4-2.6,1.6-2.3c0.2,0.9,1.2,1.4,1.1,2.4c-0.4,5.1-0.6,10.3-1.2,15.4
			c-0.2,1.5,0.1,1.7,1.2,1.9c3.9,0.6,7.8,1.3,11.7,2c4,0.7,8,1.7,12.1,0.9c1.8-0.3,2.8-1,3.3-3c1.6-7,1.4-14,1.5-21.1
			c1.1-2.3,1-4.5-0.6-6.5c-1-1.1-1.9-2.6-3.8-1.6c-0.1,0-0.3,0-0.4,0c0,0.2,0.1,0.4,0.1,0.6c-1.9,2.2-1.9,4.8-1,7.3
			c1.2,3.5,0.1,6.9-0.2,10.5c-1.9-1.1-2.9-3.2-5.2-3.2l0.1,0.1c0.2-1.8,0.8-3.6,0.4-5.5c-0.7-2.8-0.7-5.5,0.3-8.2
			c1.3,0.1,1.7-1.3,2.9-1.5c0.4,0,1.2-0.2,1.1-0.7c-0.1-0.8-0.8-0.8-1.5-1c-1.1-1-2.1-2.2-3.8-2.2c-0.1,0-0.3,0.3-0.3,0.4
			C140.4,85.1,141.7,85.9,143.2,86.2z M126.1,80.1c-2.3-1.2-4.6,0.3-5.1,3.3c-0.3,1.6,0.2,3.3-0.5,4.9c-0.4,0.9,0.4,1.4,1.3,1
			c0.6-0.3,1-0.8,1.5-1.3c2.4,0.4,4.6-0.8,5.1-3.3c0.5-2.2,0.8-4.2,3.9-4C130.1,79.9,128.1,80.1,126.1,80.1z M189.1,98.6
			c0.6-7.4-2-14.2-6-20.7c-1.2-1.9-2-4.5-5.2-4.4c-1.5,0.1-3.4-0.5-4.3,0.6c-0.7,1,0.5,2.6,1.1,3.9c3.5,8.5,5.4,17.2,4.1,26.5
			c-0.8,5.9-2.4,11.5-4.8,16.9c-0.2,0.6-1.2,1.2-0.1,1.9c1.2,0.8,6.3,0.2,7-0.9C185.7,115.3,189.7,107.9,189.1,98.6z M24,73.8
			c-0.9,0.2-2.4-0.6-3.4,0.8c-4.4,6-7.6,12.5-8.3,20c-0.9,9.7,1.7,18.4,7.1,26.4c1.2,1.8,2.5,2.6,4.6,2.7c3.8,0.1,4.3-0.4,2.6-3.8
			c-3.1-6.4-4.5-13.2-4.6-20.2c-0.2-8.2,1.9-16,5.2-23.4c0.9-1.9,0.4-2.6-1.6-2.4C25.2,73.8,24.8,73.8,24,73.8z M110.9,99.6
			c0.2-1.3-0.4-2.2-1.9-2.2c-1.7,0.1-2.4-0.6-2.3-2.3c0.1-1.5-0.8-2-2.2-2c-1.4,0-2,0.7-1.9,2c0.2,1.7-0.7,2.5-2.3,2.4
			c-1.3,0-2.1,0.3-2,1.8c0.1,1.4,0.6,2.3,2,2.2c1.7-0.1,2.5,0.6,2.3,2.3c-0.2,1.6,0.8,1.9,2.2,1.9c1.4,0,2-0.6,1.9-1.9
			c-0.2-1.8,0.6-2.4,2.3-2.3C110.4,101.8,111,101.1,110.9,99.6z M85.3,96.2c-1-0.3-1.2,0.7-1.5,1.3c-1.3,2.3-2.5,4.7-3.8,7
			c-0.5,0.8-1.1,1.8,0.3,2.1c1.1,0.2,2.4,2.2,3.4-0.2c1-2.5,2.2-5,3.3-7.5C87.8,97,87.3,96.2,85.3,96.2z M80.9,118.6
			c0.5-0.1,1.4,0.2,1.6-0.7c0.1-0.7-0.6-0.8-1.2-1.1c-0.7-0.3-1.4-0.6-2.1-0.9c-0.7-0.3-1.5-1.3-2.1-0.3c-0.4,0.7,0.5,1.5,1.1,2
			C79,118.4,79.8,118.7,80.9,118.6z M43.8,98.1c1.1,1,2,1.5,2.9,2c0.7,0.4,0.9-0.1,1.2-0.3c0.4-0.3,0.1-0.6-0.2-0.7
			C46.6,98.6,45.6,97.7,43.8,98.1z M47.6,101.9c-1.4-0.5-2.4-1.5-4-1C44.6,102.3,45.4,103.8,47.6,101.9z"/>
		<path class="st2" d="M181.4,78.1c3.2-1.7,4.6,0.8,6.3,2.6c-0.2,0.4-0.3,0.8-0.5,1.2c-2-1.5-3.4-0.7-4.3,1.2
			c-1.5,2.9-1.4,5.8,0.7,8.5c1.6,2.1,3.1,0.8,4.6-0.3c0.2,0.1,0.5,0.2,0.7,0.3c-0.1,11.7,0.3,23.5-2.5,35.1c-0.8,3.4-2.6,4.4-5.5,5
			c-6.9,1.4-13.5-0.3-20.1-1.4c-6.5-1.1-13-2.2-19.5-3.3c-1.9-0.3-2.3-0.7-2-3.1c1.1-8.5,1.4-17.1,2-25.6c0.1-1.7-1.5-2.6-1.8-4
			c1.4-1.4-0.7-2.6-0.2-3.9c5.7,1.1,8.7-0.5,10.7-6.8c1.2-3.6,2.7-4.5,6.1-3c2.2,1,4.9,1,7.1,1.9c3.3,1.3,5.9,0.9,7.7-2.4
			c0.2,0.2,0.4,0.4,0.6,0.5c-1.7,4.5-1.5,9.1-0.4,13.7c0.7,3.1-0.3,6.1-0.6,9.2c-4.2,0.7-8.6-0.4-12.9,1.2c-1,0.4-2.8-0.3-3.9-1.5
			c3.7-1.8,6.7-4.3,10.5-5.3c1.1-0.3,3-1.3,1.4-2.9c-0.9-0.9-2.4-2.2-3.6-1.4c-1.6,1-4.7,2-4.3,3.6c0.8,3.4-1.3,2.8-2.9,2.9
			c-2.4,0.2-4.8,0.1-7.3,0.1c0.8,2.7,4.1,2,4.6,4.7c1.1,6.2,0.2,7.7-5.7,9.2c-0.3,0.1-1.1,0-0.9,0.9c7.1,1,14.2,2,21.3,3
			c1.8,0.3,2.8,0,2.8-2.3c0.1-4.1,0.6-8.2,0.9-12.3c3.8-0.1,5.5,3.4,8.6,5.3c0.5-6,2.4-11.5,0.4-17.4c-1.4-4.1-1.5-8.5,1.7-12.2
			C181.6,79,181.8,78.7,181.4,78.1z"/>
		<path class="st3" d="M191.4,97c0.8,13.3-4.9,23.9-11.6,34.2c-1,1.6-8.4,2.4-10.1,1.3c-1.5-1-0.2-2,0.2-2.8
			c3.4-7.8,5.8-15.8,6.9-24.3c1.8-13.2-0.8-25.8-5.9-38c-0.8-1.8-2.5-4.2-1.5-5.5c1.2-1.6,3.9-0.8,6.1-0.9c4.5-0.2,5.7,3.5,7.4,6.3
			C188.5,76.6,192.3,86.3,191.4,97z"/>
		<path class="st3" d="M24.9,61.1c1.1,0,1.7,0,2.3,0c3-0.3,3.6,0.8,2.3,3.5c-4.8,10.7-7.8,21.9-7.5,33.7c0.2,10.1,2.2,20,6.6,29.2
			c2.4,4.9,1.7,5.7-3.8,5.5c-3.1-0.1-4.9-1.3-6.6-3.9C10.4,117.5,6.6,104.9,7.9,91c1-10.8,5.7-20.2,12-28.8
			C21.4,60.3,23.5,61.3,24.9,61.1z"/>
		<path class="st2" d="M18,86.4c0.3,5.2,3.4,8.2,8.2,9.8c10.9,3.6,21.3,2.4,31.2-3.2c7.9-4.5,8.9-6.4,8.6-15.4
			c1.8,1.3,3.9,3.3,5.4,0.7c1.8-3.1-3.2-1.1-2.9-3.7c4.2,0.7,7.5-2.4,11.6-3c1.9-0.3,3.8-0.1,3.5,2c-0.3,3.2,1.8,2.9,3.6,3.3
			c1.5,0.3,3.5,0.2,2.9,2.4c-0.6,2.1,2,4.7-2,6.7c-3.7,1.8-7.1,2.7-11,2.2c-1.6-0.2-2.5,0.3-3.2,1.9c-0.6,1.6-1.8,2.7-3.6,3
			c-0.1-1.2,0.6-2.1,1.2-3c0.8-1.2,1.3-2.3-0.5-3.4c-1.7-1-2.5-0.3-3.2,1.2c-0.7,1.4-1.8,2.4-2.9,3.4c-0.6,0.5-1.6,1.1-0.9,1.9
			c0.4,0.5,1.6,0.6,2.3,0.4c1.4-0.5,2.5-1.6,4.1-0.6c-3.2,5.6-10,5.2-14.4,8.8c-0.2,0.2-0.9,0.1-1.1-0.1c-0.8-1.4,0.9-1.7,1.2-2.7
			c-1.8-0.8-3.4-0.3-5.1,0.2c-5.5,1.7-11.2,3.1-17,2.7c-3.6-0.2-7.1-1.6-10.7-2.4c-1-1.3-2.2-1.2-3.4-0.3c-0.2-3.1-4.1-4.4-3.8-7.7
			c0.1-0.1,0.2-0.2,0.2-0.2c-0.1-0.2-0.2-0.3-0.3-0.4c0.1-0.9,0.2-1.9,0.2-2.8C16.9,87.4,17.5,86.9,18,86.4z"/>
		<path class="st4" d="M121.1,98.8c0.2,2.5-0.8,3.7-3.1,3.4c-2.8-0.3-4.2,0.8-3.8,3.8c0.3,2.3-0.8,3.2-3.1,3.2
			c-2.3,0-3.9-0.4-3.7-3.1c0.3-2.9-1-4-3.8-3.9c-2.5,0.1-3.3-1.5-3.4-3.7c-0.1-2.5,1.3-3,3.4-3c2.7,0,4.1-1.1,3.9-4.1
			c-0.2-2.2,0.7-3.3,3.1-3.4c2.4,0,3.9,0.7,3.7,3.3c-0.2,2.9,1,4,3.8,3.9C120.4,95,121.3,96.6,121.1,98.8z"/>
		<path class="st2" d="M78.4,121.6c-0.9,3.3-2.3,4.1-5.9,2.5c-13.8-6.2-27.8-12-41.7-17.9c-3.5-1.5-7.1-2.7-10.6-4
			c0.8-0.9,1.7-1.6,3.1-1.3c15.4,6.3,30.9,12.6,46.3,18.9c1.5,0.6,3.1,1.2,4.3,2.1c1.7,1.4,2.7,0.5,3.7-0.7
			C77.8,121.3,78.1,121.4,78.4,121.6z"/>
		<path class="st2" d="M78.4,93.1c3.3,0,4.1,1.3,2.8,4.3c-1.8,4.2-3.7,8.3-5.5,12.5c-1.7,4.1-3.9,0.7-5.7,0.4
			c-2.4-0.4-1.4-2.1-0.6-3.5c2.1-3.9,4.2-7.8,6.4-11.6C76.4,94.2,76.7,92.7,78.4,93.1z"/>
		<path class="st2" d="M141.7,79.6c-0.8,0.7-1.5,1.7-2.5,2.1c-1.5,0.7-2.8-0.2-2.2-1.7c1.1-2.7,0.3-5.5,0.8-8.1
			c0.9-5,4.7-7.5,8.5-5.5C148.8,72.2,145.1,75.9,141.7,79.6z"/>
		<path class="st2" d="M141.7,79.6c3.5-3.8,7.1-7.5,4.6-13.3c3.3,0,6.7-0.3,10.3,1.1c-5.2-0.3-5.7,3-6.5,6.7
			C149.3,78.3,145.7,80.3,141.7,79.6z"/>
		<path class="st2" d="M18,86.4c-0.6,0.5-1.1,1-1.7,1.5c-0.3,0-0.8,0.4-0.6-0.4c-0.5-1.5,0.6-2.6,0.8-3.8c0.1-1.7,1.5-2.1,2.7-2.8
			c4.5-2.9,8.9-5.7,13.4-8.6c0.3,0.7,0.6,1.4,1,2.1c0,1.8-1.6,1.5-2.6,2C26,78.8,20.5,80.6,18,86.4z"/>
		<path class="st2" d="M33.6,74.3c-0.3-0.7-0.6-1.4-1-2.1c5.2-3.8,10.7-2.5,16.2-0.7c0,0,0.1,0.1,0.1,0.1
			C43.9,72.7,38.8,73.9,33.6,74.3z"/>
		<path class="st2" d="M71.1,130.4c-1.8,0.1-3.2-0.4-4.4-1.3c-1.1-0.9-2.5-2.2-1.8-3.4c1-1.8,2.3,0,3.5,0.5c1.2,0.4,2.3,1,3.4,1.5
			c0.9,0.4,2.2,0.6,2,1.8C73.4,130.8,71.9,130.2,71.1,130.4z"/>
		<path class="st2" d="M135.5,115.1c-0.8-5.8-0.6-11.5,0-17.3c0.3,0.3,0.6,0.7,1.2,0.3c0,5.7,0.1,11.3,0.1,17
			C136.4,114.6,135.9,114.7,135.5,115.1z"/>
		<path class="st2" d="M136.6,98.1c-0.5,0.5-0.8,0-1.2-0.3c-0.1-1.7-0.3-3.4,0.6-4.9c3.7-0.3,0.3-2.8,1.2-4c1-0.1,1.6,0.4,1.8,1.4
			c-0.5,1.3,1.6,2.5,0.2,3.9C136,93.8,137.6,96.8,136.6,98.1z"/>
		<path class="st2" d="M188.8,91.6c-0.2-0.1-0.5-0.2-0.7-0.3c0.8-3.2,1.4-6.5-0.9-9.4c0.2-0.4,0.3-0.8,0.5-1.2
			C190.4,84.1,190.6,87.8,188.8,91.6z"/>
		<path class="st2" d="M171.4,80.7c-0.2-0.2-0.4-0.4-0.6-0.5c0-2.6,2.5-2.6,3.9-3.7c0.3-0.3,0.6-0.7,1-1c1,0.2,2.3,0.4,2.4,1.6
			c0.1,0.9-1.2,1.1-1.9,1.2C174.3,78.4,173.5,80.9,171.4,80.7z"/>
		<path class="st2" d="M16.6,83.7c-0.3,1.3-1.4,2.4-0.8,3.8c-0.7,0.4-1.4,0.7-2.1,1.1c-0.2-0.7-0.8-0.7-1.4-0.6
			C10.3,83.9,10.6,83.6,16.6,83.7z"/>
		<path class="st2" d="M175.7,75.4c-0.3,0.3-0.6,0.7-1,1c-2.5-0.6-4.5-1.8-5.9-4c-0.1-0.1,0.3-0.6,0.5-0.6
			C172.1,71.8,173.8,73.8,175.7,75.4z"/>
		<path class="st2" d="M137.4,89c-0.9,1.2,2.5,3.7-1.2,4c-1.2-3.1-1-6.3-0.4-10.4C137.4,84.9,136.4,87.2,137.4,89z"/>
		<path class="st2" d="M9.3,96.3c3-0.7,4.6,0.9,6.5,1.6c0.5,0.2,1,0.7,0.3,1.2c-0.6,0.4-0.8,1.2-2,0.6C12.6,98.8,11.2,97.8,9.3,96.3
			z"/>
		<path class="st2" d="M15.7,102.5c-3.7,3.2-5,0.7-6.7-1.7C11.7,100,13.3,101.8,15.7,102.5z"/>
		<path class="st2" d="M78.4,121.6c-0.3-0.1-0.6-0.3-0.9-0.4c0.2-2,0.9-3.8,2.5-5.7C80.8,118.1,80.5,120,78.4,121.6z"/>
		<path class="st2" d="M23.1,100.9c-1.3-0.3-2.2,0.4-3.1,1.3c-1.7-1-1.3-2.1-0.1-3.2c1.2-0.9,2.4-1,3.4,0.3
			C23.3,99.9,23.2,100.4,23.1,100.9z"/>
		<path class="st2" d="M48.9,71.6c0,0-0.1-0.1-0.1-0.1c3.1-1.8,5.5,1.1,8.4,0.9C54.3,73.3,51.6,72.4,48.9,71.6z"/>
		<path class="st2" d="M135.5,115.1c0.4-0.4,0.8-0.5,1.2,0c0.4,2.2,0.3,4.4-0.7,6.5C135.4,119.4,135,117.3,135.5,115.1z"/>
		<path class="st2" d="M12.3,88c0.6-0.1,1.2-0.2,1.4,0.6c0,1.4-1.1,0.5-1.7,0.8C11.8,88.9,11.8,88.4,12.3,88z"/>
		<path class="st2" d="M16.1,90.7c0.1,0.1,0.2,0.3,0.3,0.4c0,0-0.1,0.1-0.2,0.2c-0.5,0.5-1,0.3-1.1-0.3
			C15.1,90.5,15.6,90.2,16.1,90.7z"/>
		<path class="st2" d="M181.4,78.1c0.4,0.6,0.2,0.9-0.4,1c-0.1-0.3-0.1-0.6-0.2-0.9C181,78.2,181.2,78.1,181.4,78.1z"/>
		<path d="M140.5,102.4c-0.2,2.5-0.5,4.9-0.5,7.4c0,1.3-0.6,1.5-1.7,1.4c-4.3-0.6-8.5-1.2-12.8-1.8c-0.1-0.6,0.4-0.5,0.6-0.6
			c3.6-0.9,4.1-1.8,3.4-5.5c-0.3-1.6-2.2-1.3-2.7-2.8c1.5,0,3,0.1,4.4,0c0.9-0.1,2.2,0.3,1.7-1.7c-0.2-0.9,1.6-1.5,2.6-2.2
			c0.8-0.5,1.7,0.3,2.2,0.8c1,1-0.2,1.6-0.8,1.8c-2.3,0.6-4,2.1-6.3,3.2c0.7,0.7,1.7,1.2,2.4,0.9C135.3,102.2,138,102.9,140.5,102.4
			C140.5,102.5,140.5,102.4,140.5,102.4z"/>
		<path d="M150.6,89.5c1.4,1.8,1,3.7,0.5,5.7c-0.9,0.6-1.8,1.4-2.7,0.2c-1.2-1.6-1.3-3.3-0.4-5.1C148.6,89.1,149.5,88.6,150.6,89.5z
			"/>
		<path d="M80.4,96.1c-0.9-0.6-1.7,0.1-2.5,0.4c-0.4,0.1-1.1,0-1.4-0.2c-0.5-0.5,0.2-0.9,0.5-1.2c0.7-0.6,1.4-1.2,1.8-2
			c0.4-0.9,0.9-1.3,1.9-0.7c1.1,0.6,0.8,1.3,0.3,2C80.7,95,80.3,95.5,80.4,96.1C80.4,96.2,80.4,96.1,80.4,96.1z"/>
		<ellipse class="st2" cx="39.7" cy="85.3" rx="1.7" ry="0.8"/>
	</g>
</g>
<g id="Layer_2">
	<g>
		<path class="st1" d="M194.9,128.5c-63.2,0-126.4,0-189.8,0c0-18.9,0-37.9,0-56.9c63.2,0,126.5,0,189.8,0
			C194.9,90.4,194.9,109.4,194.9,128.5z M72.1,111.1c-21.4-12.4-42-24.4-62.9-36.5c0,15.7,0,30.8,0,46.1c3-0.2,5.6-0.3,8.8-0.5
			c0-10.6,0-20.8,0-31.8c21.4,12.3,42.1,24.2,63.1,36.2c0-15.8,0-30.5,0-45.5c-3,0-5.8,0-9,0C72.1,89.5,72.1,99.9,72.1,111.1z
			 M176.9,78.5c-19.6,0-39.1-0.3-58.5,0.2c-6.7,0.2-12.8,4.1-13.4,11c-1,10.2-0.3,20.7-0.3,30.9c24.4,0,48.5,0,72.7,0
			c0-2.1,0-3.9,0-6.2c-21.4,0-42.6,0-64.1,0c0-6.1,0-11.7,0-17.2c0.1-8.6,3.3-11.9,12-11.9c12.6-0.1,25.2,0,37.7,0
			c4.5,0,9.1,0,13.9,0C176.9,82.7,176.9,80.6,176.9,78.5z M96.8,120c0-2.1,0-3.7,0-5.3c-3.1,0-5.8,0-8.6,0c0,1.9,0,3.5,0,5.3
			C91.2,120,93.8,120,96.8,120z M181.1,114.6c0,2.1,0,3.7,0,5.3c3.1,0,5.8,0,8.7,0c0-1.9,0-3.5,0-5.3
			C186.9,114.6,184.1,114.6,181.1,114.6z"/>
		<path d="M72.1,111.1c0-11.2,0-21.6,0-32.1c3.3,0,6,0,9,0c0,15,0,29.8,0,45.5c-21-12.1-41.6-23.9-63.1-36.2c0,11.1,0,21.2,0,31.8
			c-3.2,0.2-5.8,0.3-8.8,0.5c0-15.3,0-30.3,0-46.1C30.1,86.7,50.7,98.7,72.1,111.1z"/>
		<path d="M176.9,78.5c0,2.1,0,4.2,0,6.8c-4.8,0-9.4,0-13.9,0c-12.6,0-25.2,0-37.7,0c-8.6,0-11.9,3.4-12,11.9c0,5.6,0,11.2,0,17.2
			c21.6,0,42.7,0,64.1,0c0,2.3,0,4.1,0,6.2c-24.2,0-48.3,0-72.7,0c0-10.3-0.7-20.7,0.3-30.9c0.7-7,6.7-10.9,13.4-11
			C137.9,78.2,157.3,78.5,176.9,78.5z"/>
		<path d="M96.8,120c-3,0-5.6,0-8.6,0c0-1.8,0-3.4,0-5.3c2.8,0,5.5,0,8.6,0C96.8,116.3,96.8,117.9,96.8,120z"/>
		<path d="M181.1,114.6c3,0,5.8,0,8.7,0c0,1.8,0,3.5,0,5.3c-2.9,0-5.7,0-8.7,0C181.1,118.3,181.1,116.7,181.1,114.6z"/>
	</g>
	<text transform="matrix(1 0 0 1 7.2749 135.0225)" class="st1 st5 st6">PRODUCTIONS</text>
</g>
</svg>
